<svg width="20" height="20" viewBox="0 0 20 20" fill="none" xmlns="http://www.w3.org/2000/svg">
<path d="M16.1924 13.3639L14.7782 11.9497L16.1924 10.5355C18.145 8.58293 18.145 5.41709 16.1924 3.46447C14.2398 1.51184 11.0739 1.51184 9.12131 3.46447L7.7071 4.87868L6.29289 3.46447L7.7071 2.05025C10.4408 -0.683418 14.8729 -0.683418 17.6066 2.05025C20.3403 4.78392 20.3403 9.21603 17.6066 11.9497L16.1924 13.3639ZM13.3639 16.1924L11.9497 17.6066C9.21611 20.3402 4.78392 20.3402 2.05025 17.6066C-0.683418 14.8729 -0.683418 10.4407 2.05025 7.70711L3.46446 6.29289L4.87868 7.70711L3.46446 9.12133C1.51184 11.0739 1.51184 14.2397 3.46446 16.1924C5.41708 18.145 8.58291 18.145 10.5355 16.1924L11.9497 14.7781L13.3639 16.1924ZM12.6568 5.58579L14.0711 7L7 14.071L5.58578 12.6568L12.6568 5.58579Z" fill="#151515"/>
</svg>
