<svg width="35" height="35" viewBox="0 0 35 35" fill="none" xmlns="http://www.w3.org/2000/svg">
<path d="M13.6581 15.5781C15.0237 17.9795 17.0205 19.9763 19.4219 21.3418L20.7118 19.536C21.1407 18.9357 21.9503 18.7502 22.5977 19.1039C24.6493 20.2246 26.9166 20.9056 29.2817 21.0929C30.0402 21.153 30.625 21.7859 30.625 22.5467V29.055C30.625 29.8026 30.0595 30.4291 29.3157 30.5056C28.5429 30.585 27.7633 30.625 26.9792 30.625C14.4952 30.625 4.375 20.5048 4.375 8.02083C4.375 7.23664 4.41499 6.45708 4.49442 5.68423C4.57085 4.94047 5.19741 4.375 5.94511 4.375H12.4533C13.2141 4.375 13.8471 4.95985 13.9071 5.71826C14.0943 8.08337 14.7754 10.3507 15.8961 12.4023C16.2498 13.0498 16.0643 13.8593 15.464 14.2881L13.6581 15.5781ZM9.9812 14.6201L12.752 12.641C11.9663 10.945 11.4279 9.14642 11.1523 7.29167H7.30489C7.29609 7.53422 7.29167 7.77729 7.29167 8.02083C7.29167 18.8939 16.1061 27.7083 26.9792 27.7083C27.2227 27.7083 27.4658 27.704 27.7083 27.6951V23.8477C25.8536 23.5721 24.0551 23.0336 22.359 22.248L20.3799 25.0189C19.5793 24.7078 18.8061 24.3418 18.065 23.9256L17.9802 23.8773C15.1225 22.2523 12.7478 19.8775 11.1227 17.0198L11.0745 16.935C10.6582 16.1939 10.2922 15.4207 9.9812 14.6201Z" fill="white"/>
</svg>
