<svg width="27" height="27" viewBox="0 0 27 27" fill="none" xmlns="http://www.w3.org/2000/svg">
<path d="M9.28311 11.2031C10.6487 13.6045 12.6455 15.6013 15.0469 16.9668L16.3368 15.161C16.7657 14.5607 17.5753 14.3752 18.2227 14.7289C20.2743 15.8496 22.5416 16.5306 24.9067 16.7179C25.6652 16.778 26.25 17.4109 26.25 18.1717V24.68C26.25 25.4276 25.6845 26.0541 24.9407 26.1306C24.1679 26.21 23.3883 26.25 22.6042 26.25C10.1202 26.25 0 16.1298 0 3.64583C0 2.86164 0.0399877 2.08208 0.119423 1.30923C0.195854 0.565469 0.822413 0 1.57011 0H8.07832C8.8391 0 9.47206 0.58485 9.5321 1.34326C9.71931 3.70837 10.4004 5.97573 11.5211 8.02731C11.8748 8.67475 11.6893 9.48433 11.089 9.91312L9.28311 11.2031ZM5.6062 10.2451L8.37696 8.26596C7.59131 6.57 7.05291 4.77142 6.77727 2.91667H2.92989C2.92109 3.15922 2.91667 3.40229 2.91667 3.64583C2.91667 14.5189 11.7311 23.3333 22.6042 23.3333C22.8477 23.3333 23.0908 23.329 23.3333 23.3201V19.4727C21.4786 19.1971 19.6801 18.6586 17.984 17.873L16.0049 20.6439C15.2043 20.3328 14.4311 19.9668 13.69 19.5506L13.6052 19.5023C10.7475 17.8773 8.37279 15.5025 6.74771 12.6448L6.6995 12.56C6.28321 11.8189 5.91725 11.0457 5.6062 10.2451Z" fill="white"/>
</svg>
