<svg width="20" height="20" viewBox="0 0 20 20" fill="none" xmlns="http://www.w3.org/2000/svg">
<path d="M10 7C8.34262 7 7 8.3431 7 10C7 11.6573 8.34312 13 10 13C11.6573 13 13 11.6569 13 10C13 8.3427 11.6569 7 10 7ZM10 5C12.7604 5 15 7.2371 15 10C15 12.7605 12.7629 15 10 15C7.23953 15 5 12.7629 5 10C5 7.23953 7.2371 5 10 5ZM16.5 4.74915C16.5 5.43926 15.9392 5.99917 15.25 5.99917C14.5599 5.99917 14 5.4384 14 4.74915C14 4.0599 14.5607 3.5 15.25 3.5C15.9383 3.49913 16.5 4.0599 16.5 4.74915ZM10 2C7.52552 2 7.1222 2.00655 5.97129 2.0578C5.18717 2.09461 4.66155 2.20007 4.17318 2.38967C3.73918 2.55799 3.42611 2.75898 3.09254 3.09255C2.75769 3.4274 2.55706 3.73963 2.38942 4.17383C2.19938 4.66332 2.09395 5.18811 2.0578 5.97115C2.00605 7.0752 2 7.46105 2 10C2 12.4745 2.00655 12.8778 2.05779 14.0286C2.09462 14.8124 2.20022 15.3388 2.38936 15.826C2.55812 16.2606 2.75952 16.5744 3.09148 16.9064C3.42765 17.2421 3.74081 17.4434 4.17089 17.6094C4.66521 17.8005 5.1905 17.9061 5.97114 17.9422C7.0752 17.9939 7.46105 18 10 18C12.4745 18 12.8778 17.9934 14.0286 17.9422C14.8107 17.9055 15.3375 17.7996 15.826 17.6106C16.2594 17.4423 16.5742 17.2402 16.9064 16.9085C17.2426 16.5718 17.4435 16.2594 17.6097 15.8283C17.8003 15.3358 17.9061 14.8098 17.9422 14.0289C17.9939 12.9248 18 12.5389 18 10C18 7.52552 17.9934 7.12221 17.9422 5.97137C17.9054 5.18906 17.7995 4.66149 17.6103 4.17318C17.4424 3.74038 17.2407 3.42635 16.9074 3.09255C16.572 2.75715 16.2606 2.55693 15.8261 2.38942C15.337 2.19954 14.8114 2.09396 14.0288 2.05781C12.9248 2.00605 12.5389 2 10 2ZM10 0C12.7166 0 13.0558 0.00999994 14.1225 0.0599999C15.1866 0.10917 15.9125 0.2775 16.55 0.525C17.2091 0.77917 17.7658 1.1225 18.3216 1.67833C18.8766 2.23417 19.22 2.7925 19.475 3.45C19.7216 4.08667 19.89 4.81333 19.94 5.8775C19.9875 6.94417 20 7.28333 20 10C20 12.7167 19.99 13.0558 19.94 14.1225C19.8908 15.1867 19.7216 15.9125 19.475 16.55C19.2208 17.2092 18.8766 17.7658 18.3216 18.3217C17.7658 18.8767 17.2066 19.22 16.55 19.475C15.9125 19.7217 15.1866 19.89 14.1225 19.94C13.0558 19.9875 12.7166 20 10 20C7.28333 20 6.94416 19.99 5.8775 19.94C4.81333 19.8908 4.08833 19.7217 3.45 19.475C2.79166 19.2208 2.23416 18.8767 1.67833 18.3217C1.1225 17.7658 0.78 17.2067 0.525 16.55C0.2775 15.9125 0.11 15.1867 0.0600002 14.1225C0.0125002 13.0558 0 12.7167 0 10C0 7.28333 0.0100002 6.94417 0.0600002 5.8775C0.10916 4.8125 0.2775 4.0875 0.525 3.45C0.77916 2.79167 1.1225 2.23417 1.67833 1.67833C2.23416 1.1225 2.7925 0.78 3.45 0.525C4.0875 0.2775 4.8125 0.11 5.8775 0.0599999C6.94416 0.0124999 7.28333 0 10 0Z" fill="white"/>
</svg>
