<svg width="27" height="32" viewBox="0 0 27 32" fill="none" xmlns="http://www.w3.org/2000/svg">
<path d="M13.125 31.6865L3.84423 22.4058C-1.28141 17.2801 -1.28141 8.96986 3.84423 3.84422C8.96986 -1.28141 17.2801 -1.28141 22.4058 3.84422C27.5314 8.96986 27.5314 17.2801 22.4058 22.4058L13.125 31.6865ZM20.3433 20.3433C24.33 16.3568 24.33 9.89322 20.3433 5.90661C16.3568 1.92001 9.89322 1.92001 5.90661 5.90661C1.92001 9.89322 1.92001 16.3568 5.90661 20.3433L13.125 27.5618L20.3433 20.3433ZM13.125 16.0417C11.5141 16.0417 10.2083 14.7359 10.2083 13.125C10.2083 11.5142 11.5141 10.2083 13.125 10.2083C14.7359 10.2083 16.0417 11.5142 16.0417 13.125C16.0417 14.7359 14.7359 16.0417 13.125 16.0417Z" fill="white"/>
</svg>
